# AST/ASF file generated using VICON BodyLanguage
# -----------------------------------------------
:version 1.10
:name VICON
:units
  mass 1.0
  length 0.45
  angle deg
:documentation
   .ast/.asf automatically generated from VICON data using
   VICON BodyBuilder and BodyLanguage model FoxedUp or BRILLIANT.MOD
:root
   order TX TY TZ RX RY RZ
   axis XYZ
   position 0 0 0  
   orientation 0 0 0 
:bonedata
  begin
     id 1 
     name lhipjoint
     direction 0.535335 -0.74333 0.401095 
     length 2.04549 
     axis 0 0 0  XYZ
  end
  begin
     id 2 
     name lfemur
     direction 0.34202 -0.939693 0  
     length 6.95643  
     axis 0 0 20  XYZ
    dof rx ry rz
    limits (-160.0 20.0)
           (-70.0 70.0)
           (-60.0 70.0)
  end
  begin
     id 3 
     name ltibia
     direction 0.34192 -0.939729 0   
     length 5.55969   
     axis 0 0 20   XYZ
    dof rx
    limits (-10.0 170.0)
  end
  begin
     id 4 
     name lfoot
     direction 0.216943 -0.596046 0.773088   
     length 2.27918   
     axis -90 7.62852e-016 20   XYZ
    dof rx rz
    limits (-45.0 90.0)
           (-70.0 20.0)
  end
  begin
     id 5 
     name ltoes
     direction 1.53519e-011 -4.21748e-011 1   
     length 1.05562   
     axis -90 7.62852e-016 20   XYZ
    dof rx
    limits (-90.0 20.0)
  end
  begin
     id 6 
     name rhipjoint
     direction -0.576368 -0.719173 0.38806   
     length 2.1142  
     axis 0 0 0  XYZ 
  end
  begin
     id 7 
     name rfemur
     direction -0.34202 -0.939693 0   
     length 7.07928   
     axis 0 0 -20   XYZ
    dof rx ry rz
    limits (-160.0 20.0)
           (-70.0 70.0)
           (-70.0 60.0)
  end
  begin
     id 8 
     name rtibia
     direction -0.34202 -0.939693 0   
     length 5.79974   
     axis 0 0 -20   XYZ
    dof rx
    limits (-10.0 170.0)
 end
 begin
     id 9 
     name rfoot
     direction -0.189288 -0.520065 0.832888   
     length 2.42173  
     axis -90 -7.62852e-016 -20   XYZ
    dof rx rz
    limits (-45.0 90.0)
           (-20.0 70.0)
  end
  begin
     id 10 
     name rtoes
     direction -1.53574e-011 -4.21658e-011 1   
     length 1.14469   
     axis -90 -7.62852e-016 -20   XYZ
    dof rx
    limits (-90.0 20.0)
  end
  begin
     id 11 
     name lowerback
     direction -0.00135702 0.993803 0.111144   
     length 1.91308   
     axis 0 0 0   XYZ
    dof rx ry rz
    limits (-20.0 45.0)
           (-30.0 30.0)
           (-30.0 30.0)
  end
  begin
     id 12 
     name upperback
     direction -0.0056745 0.999813 0.0184631   
     length 1.9212   
     axis 0 0 0   XYZ
    dof rx ry rz
    limits (-20.0 45.0)
           (-30.0 30.0)
           (-30.0 30.0)
  end
  begin
     id 13 
     name thorax
     direction -0.00733434 0.999426 -0.0330788   
     length 1.94196   
     axis 0 0 0   XYZ
    dof rx ry rz
    limits (-20.0 45.0)
           (-30.0 30.0)
           (-30.0 30.0)
  end
  begin
     id 14 
     name lowerneck
     direction 0.0563074 0.996944 -0.0541571   
     length 2.34257   
     axis 0 0 0   XYZ
    dof rx ry rz
    limits (-20.0 45.0)
           (-30.0 30.0)
           (-30.0 30.0)
  end
  begin
     id 15 
     name upperneck
     direction -0.0544519 0.976166 -0.210085   
     length 2.32506   
     axis 0 0 0   XYZ
    dof rx ry rz
    limits (-20.0 45.0)
           (-30.0 30.0)
           (-30.0 30.0)
  end
  begin
     id 16
     name head
     direction -0.0226035 0.997615 -0.0652205  
     length 2.3648  
     axis 0 0 0   XYZ
    dof rx ry rz
    limits (-20.0 45.0)
           (-30.0 30.0)
           (-30.0 30.0)
  end
  begin
     id 17 
     name lclavicle
     direction 0.92109 0.381297 -0.0787716  
     length 4.0487  
     axis 0 0 0   XYZ
    dof ry rz
    limits (-20.0 10.0)
           (0.0 20.0)
  end
  begin
     id 18 
     name lhumerus
     direction 1 -4.48986e-011 3.56724e-027   
     length 4.94991   
     axis 180 -30 -90   XYZ
    dof rx ry rz
    limits (-60.0 90.0)
           (-90.0 90.0)
           (-90.0 90.0)
  end
  begin
     id 19
     name lradius
     direction 1 -4.48981e-011 8.62147e-027   
     length 2.7606   
     axis 180 -30 -90   XYZ
    dof rx
    limits (-10.0 170.0)
  end
  begin
     id 20
     name lwrist
     direction 1 -4.48989e-011 1.59799e-026   
     length 1.3803   
     axis -1.17785e-014 90 90   XYZ
    dof ry
    limits (-180.0 0.0)
 end
  begin
     id 21 
     name lhand
     direction 1 -4.48896e-011 3.19599e-026   
     length 0.843936   
     axis -2.03931e-014 90 90   XYZ
    dof rx rz
    limits (-90.0 90.0)
           (-45.0 45.0)
  end
  begin
     id 22 
     name lfingers
     direction 1 -4.48887e-011 6.39197e-026   
     length 0.680403   
     axis -4.07862e-014 90 90   XYZ
    dof rx
    limits (0.0 90.0)
  end
  begin
     id 23
     name lthumb
     direction 0.707107 -6.348e-011 0.707107   
     length 0.976926   
     axis -90 45 2.85299e-015   XYZ
    dof rx rz
    limits (-45.0 45.0)
           (-45.0 45.0)
  end
  begin
     id 24 
     name rclavicle
     direction -0.951104 0.307692 -0.026953   
     length 4.21801  
     axis 0 0 0   XYZ 
    dof ry rz
    limits (-10.0 20.0)
           (-20.0 0.0)
  end
  begin
     id 25 
     name rhumerus
     direction -1 -4.4896e-011 -1.8171e-018  
     length 4.32982   
     axis 180 30 90   XYZ
    dof rx ry rz
    limits (-90.0 60.0)
           (-90.0 90.0)
           (-90.0 90.0)
  end
  begin
     id 26 
     name rradius
     direction -1 -4.48959e-011 8.25165e-027   
     length 3.20057   
     axis 180 30 90   XYZ
    dof rx
    limits (-10.0 170.0)
  end
  begin
     id 27 
     name rwrist
     direction -1 -4.48997e-011 1.59799e-026   
     length 1.60029   
     axis -1.17785e-014 -90 -90   XYZ
    dof ry
    limits (-180.0 0.0)
  end
  begin
     id 28
     name rhand
     direction -1 -4.49023e-011 3.19599e-026   
     length 0.960433   
     axis -2.03931e-014 -90 -90   XYZ
    dof rx rz
    limits (-90.0 90.0)
           (-45.0 45.0)
  end
  begin
     id 29
     name rfingers
     direction -1 -4.48802e-011 6.39197e-026   
     length 0.774326   
     axis -4.07862e-014 -90 -90   XYZ
    dof rx
    limits (0.0 90.0)
  end
  begin
     id 30
     name rthumb
     direction -0.707107 -6.34876e-011 0.707107   
     length 1.11178   
     axis -90 -45 -2.85299e-015   XYZ
    dof rx rz
    limits (-45.0 45.0)
           (-45.0 45.0)
  end
:hierarchy
  begin
    root lhipjoint rhipjoint lowerback
    lhipjoint lfemur
    lfemur ltibia
    ltibia lfoot
    lfoot ltoes
    rhipjoint rfemur
    rfemur rtibia
    rtibia rfoot
    rfoot rtoes
    lowerback upperback
    upperback thorax
    thorax lowerneck lclavicle rclavicle
    lowerneck upperneck
    upperneck head
    lclavicle lhumerus
    lhumerus lradius
    lradius lwrist
    lwrist lhand lthumb
    lhand lfingers
    rclavicle rhumerus
    rhumerus rradius
    rradius rwrist
    rwrist rhand rthumb
    rhand rfingers
end

#!OML:ASF C:\KaitlinTest1\Natural Motions\Nikki\Session 2\Nikki.ASF
:FULLY-SPECIFIED
:DEGREES
366
root 1.41349 16.5325 5.76321 -160.662 85.2108 -173.078
lowerback -13.8016 -2.93876 1.72499
upperback -4.12285 -3.94616 0.286416
thorax 3.27819 -1.87473 -1.30712
lowerneck 12.83 -5.97757 -17.2878
upperneck 12.6196 44.6792 8.05261
head 172.129 63.17 -31.3989
rclavicle -1.80149e-015 -8.44835e-016
rhumerus -36.1326 -10.7019 -84.3028
rradius 28.4261
rwrist -1.44303
rhand -41.9932 5.2651
rfingers 7.12502
rthumb -14.8886 -24.1799
lclavicle -1.80149e-015 -8.44835e-016
lhumerus -38.2227 20.1393 78.9349
lradius 24.632
lwrist -25.2194
lhand -37.457 6.04625
lfingers 7.12502
lthumb -10.5155 35.7632
rfemur -18.0806 -20.4489 23.9141
rtibia 26.9878
rfoot -18.5447 16.786
rtoes -5.88403e-014
lfemur -20.3916 16.3436 -18.5995
ltibia 27.589
lfoot -11.4148 -19.6654
ltoes -2.70347e-014
367
root 1.41016 16.5292 5.76614 -160.776 85.1696 -173.063
lowerback -13.7194 -2.98671 1.67738
upperback -4.14209 -4.00281 0.322279
thorax 3.21778 -1.90375 -1.24688
lowerneck 13.0819 -5.88226 -17.3548
upperneck 12.8359 44.9741 8.22654
head 172.279 63.002 -31.3071
rclavicle -1.65814e-014 -3.8266e-015
rhumerus -35.987 -9.63091 -85.1646
rradius 28.7517
rwrist -2.14492
rhand -41.7988 5.62734
rfingers 7.12502
rthumb -14.7013 -23.8314
lclavicle -1.65814e-014 -3.8266e-015
lhumerus -37.845 19.3839 79.6052
lradius 24.8835
lwrist -24.8052
lhand -37.4186 5.98082
lfingers 7.12502
lthumb -10.4785 35.6997
rfemur -17.9777 -20.7559 23.9152
rtibia 27.0141
rfoot -18.5858 17.0683
rtoes -4.21423e-014
lfemur -20.2934 16.4141 -18.5373
ltibia 27.6545
lfoot -11.4205 -19.8283
ltoes -2.54444e-014
368
root 1.40803 16.5262 5.76748 -160.397 85.1611 -172.574
lowerback -13.6485 -3.00084 1.70134
upperback -4.1438 -4.02514 0.346168
thorax 3.17705 -1.9157 -1.23483
lowerneck 13.2715 -5.8184 -17.3913
upperneck 12.9811 45.1476 8.34397
head 172.362 62.9564 -31.2604
rclavicle -2.91049e-014 -3.32964e-015
rhumerus -35.8037 -8.3428 -86.1272
rradius 29.068
rwrist -2.91323
rhand -41.6054 6.077
rfingers 7.12502
rthumb -14.515 -23.3952
lclavicle -2.91049e-014 -3.32964e-015
lhumerus -37.4302 19.0837 79.9873
lradius 24.9359
lwrist -25.3195
lhand -37.4332 5.5854
lfingers 7.12502
lthumb -10.4926 35.3035
rfemur -17.8897 -20.9937 23.9493
rtibia 27.0372
rfoot -18.5964 17.3039
rtoes -5.96354e-014
lfemur -20.2469 16.8366 -18.4981
ltibia 27.7177
lfoot -11.4324 -20.2218
ltoes -1.90833e-014
369
root 1.40623 16.5261 5.76863 -160.235 85.1777 -172.344
lowerback -13.6269 -3.0113 1.69618
upperback -4.14562 -4.03907 0.371406
thorax 3.16529 -1.92279 -1.2066
lowerneck 13.4385 -5.75711 -17.4292
upperneck 13.1225 45.3309 8.46104
head 172.46 62.8709 -31.2032
rclavicle -3.01997e-014 -2.17172e-014
rhumerus -35.5925 -7.8432 -86.515
rradius 29.1441
rwrist -0.488989
rhand -40.9757 4.77007
rfingers 7.12502
rthumb -13.9082 -24.7448
lclavicle -3.01997e-014 -2.17172e-014
lhumerus -37.0064 18.2786 80.7154
lradius 25.1943
lwrist -24.913
lhand -37.4593 5.49204
lfingers 7.12502
lthumb -10.5177 35.2089
rfemur -17.8441 -21.1927 23.9573
rtibia 27.0639
rfoot -18.5869 17.5495
rtoes -7.23576e-014
lfemur -20.2346 17.3486 -18.511
ltibia 27.7494
lfoot -11.4331 -20.7653
ltoes 2.22639e-014
370
root 1.40341 16.5243 5.76971 -160.066 85.1992 -172.095
lowerback -13.6012 -3.01704 1.69201
upperback -4.12231 -4.04822 0.388116
thorax 3.17712 -1.92763 -1.18774
lowerneck 13.5905 -5.73707 -17.4334
upperneck 13.1689 45.3038 8.47493
head 172.361 62.9977 -31.2505
rclavicle -3.38128e-014 -6.60959e-015
rhumerus -35.4736 -6.69403 -87.3363
rradius 29.5031
rwrist -0.371089
rhand -40.6787 4.78363
rfingers 7.12502
rthumb -13.6219 -24.7507
lclavicle -3.38128e-014 -6.60959e-015
lhumerus -36.5632 17.5687 81.3514
lradius 25.474
lwrist -24.8055
lhand -37.5052 5.37261
lfingers 7.12502
lthumb -10.562 35.0872
rfemur -17.7861 -21.3717 23.9695
rtibia 27.0739
rfoot -18.606 17.758
rtoes -1.27222e-014
lfemur -20.2201 17.8793 -18.5271
ltibia 27.7895
lfoot -11.4534 -21.3028
ltoes -4.13472e-014
371
root 1.39882 16.5237 5.7707 -159.905 85.2167 -171.841
lowerback -13.5298 -3.02515 1.66653
upperback -4.08278 -4.05905 0.418069
thorax 3.18376 -1.93387 -1.14147
lowerneck 13.6697 -5.69813 -17.4525
upperneck 13.2593 45.4411 8.55806
head 172.449 62.9211 -31.2064
rclavicle -1.72306e-015 4.52235e-015
rhumerus -35.2281 -5.53019 -88.1235
rradius 29.6252
rwrist -0.185313
rhand -40.4718 5.08796
rfingers 7.12502
rthumb -13.4225 -24.4596
lclavicle -1.72306e-015 4.52235e-015
lhumerus -36.0973 16.7334 82.0643
lradius 25.7691
lwrist -24.7297
lhand -37.5534 5.3589
lfingers 7.12502
lthumb -10.6085 35.0711
rfemur -17.7215 -21.5261 23.9797
rtibia 27.0912
rfoot -18.6452 17.9297
rtoes -6.36111e-014
lfemur -20.1966 18.3863 -18.5425
ltibia 27.8093
lfoot -11.458 -21.8016
ltoes -5.56597e-014
372
root 1.39464 16.5233 5.77204 -160.216 85.2093 -172.099
lowerback -13.4877 -3.05405 1.58989
upperback -4.07057 -4.0893 0.456468
thorax 3.18137 -1.94927 -1.0616
lowerneck 13.7736 -5.66631 -17.4855
upperneck 13.338 45.5296 8.60692
head 172.42 62.9126 -31.2265
rclavicle 4.0912e-014 6.89534e-015
rhumerus -35.0786 -4.40316 -88.8448
rradius 29.8088
rwrist 0.0971206
rhand -40.2346 5.24382
rfingers 7.12502
rthumb -13.1939 -24.3187
lclavicle 4.0912e-014 6.89534e-015
lhumerus -35.7583 15.9706 82.7368
lradius 26.1907
lwrist -24.5621
lhand -37.5888 5.13137
lfingers 7.12502
lthumb -10.6427 34.8418
rfemur -17.6787 -21.5609 23.9477
rtibia 27.1035
rfoot -18.644 17.9428
rtoes -1.33583e-013
lfemur -20.1922 18.6539 -18.5796
ltibia 27.819
lfoot -11.4506 -22.0912
ltoes -3.02153e-014
